<?xml version="1.0" encoding="UTF-8"?>
<svg width="594px" height="594px" viewBox="0 0 594 594" version="1.1" xmlns="http://www.w3.org/2000/svg" xmlns:xlink="http://www.w3.org/1999/xlink">
    <!-- Generator: Sketch 63.1 (92452) - https://sketch.com -->
    <title>编组 2</title>
    <desc>Created with Sketch.</desc>
    <g id="最终页面" stroke="none" stroke-width="1" fill="none" fill-rule="evenodd" opacity="0.5">
        <g id="7.1-缘分鉴定中" transform="translate(-78.000000, -470.000000)" stroke="#68B4A5" stroke-width="4">
            <g id="编组-2" transform="translate(78.000000, 470.000000)">
                <circle id="椭圆形" cx="297" cy="297" r="295"></circle>
                <circle id="椭圆形" cx="297" cy="297" r="277"></circle>
                <path d="M297,20.472136 L34.006373,211.548191 L134.461,520.715741 L459.539,520.715741 L559.993627,211.548191 L297,20.472136 Z" id="多边形"></path>
                <path d="M297.5,194.472136 L199.514679,265.662639 L236.941741,380.851293 L358.058259,380.851293 L395.485321,265.662639 L297.5,194.472136 Z" id="多边形" transform="translate(297.500000, 297.500000) scale(1, -1) translate(-297.500000, -297.500000) "></path>
                <path d="M297,24.5353451 L236.280659,213.426997 L37.8707145,212.803791 L198.754043,328.922047 L136.849294,517.428536 L297,400.301913 L457.150706,517.428536 L395.245957,328.922047 L556.129285,212.803791 L357.719341,213.426997 L297,24.5353451 Z" id="星形"></path>
                <g id="编组" transform="translate(297.006423, 297.040552) rotate(-324.000000) translate(-297.006423, -297.040552) translate(193.506423, 193.540552)">
                    <path d="M103.470968,66.6624585 L68.4639952,92.0965129 L81.8354689,133.249677 L125.106467,133.249677 L138.47794,92.0965129 L103.470968,66.6624585 Z" id="多边形" transform="translate(103.470968, 103.470968) scale(1, -1) translate(-103.470968, -103.470968) "></path>
                    <path d="M103.470968,6.5353451 L81.8686534,73.7379329 L11.2797122,73.516213 L68.517689,114.827976 L46.4936383,181.893534 L103.470968,140.22302 L160.448297,181.893534 L138.424247,114.827976 L195.662223,73.516213 L125.073282,73.7379329 L103.470968,6.5353451 Z" id="星形"></path>
                </g>
            </g>
        </g>
    </g>
</svg>