<svg xmlns="http://www.w3.org/2000/svg" viewBox="0 0 204 121"><path d="M14.951 5.04c7.874-2.31 43.37-2.095 72.025-1.999 5.48.019 10.715.036 15.47.036h.9c29.726.025 72.592 1.212 83.148 2.749 4.662.678 8.418 2.227 10.965 4.655 2.317 2.21 3.541 5.15 3.541 8.657 0 8.801-.683 56.038-1.375 62.631-.087.834-.158 1.69-.23 2.554-.251 3.04-.406 6.23-1.733 8.601-.713 1.276-1.864 2.206-3.692 2.608-4.907 1.078-9.734 1.62-14.48 1.62-1.685 0-3.378-.068-5.082-.204.95 1.112 1.69 2.498 2.233 4.144 1.2 3.636.876 6.828-1.207 9.53-1.845 2.393-4.858 4.382-8.954 6.074-.059-4.904-.623-8.837-1.947-11.821-1.775-4-4.779-6.589-9.737-7.657-3.892-.838-32.087-.309-62.158.332-33.339.71-69.022 1.525-75.187.35-4.763-.91-8.16-2.524-10.437-4.8-2.454-2.45-3.526-5.63-3.83-9.189-.498-5.813.092-32.647.454-49.507.143-6.639.252-11.749.252-13.478 0-2.968 1.039-6.937 3.382-10.265 1.752-2.486 4.258-4.616 7.68-5.62z" fill="#FFF" stroke="#3E7CA8" stroke-width="6" fill-rule="evenodd"/></svg>