<svg width="360" height="360" xmlns="http://www.w3.org/2000/svg"><g fill="none" fill-rule="evenodd" opacity=".2"><path d="M0 0h360v360H0z"/><path d="M295.045 20H64.955c.573 12.664-4.333 24.19-12.55 32.406C44.19 60.622 32.665 65.528 20 64.955v230.09c12.664-.573 24.19 4.333 32.406 12.55 8.216 8.216 13.122 19.741 12.549 32.405h230.09c-.573-12.664 4.333-24.19 12.55-32.406 8.216-8.216 19.741-13.122 32.405-12.549V64.955c-12.664.573-24.19-4.333-32.406-12.55-8.216-8.216-13.122-19.741-12.549-32.405z" stroke="#FFF" stroke-width="4" stroke-linejoin="round"/><path d="M35.728 22c.213 0 .419.024.619.07C42.894 22.743 48 28.275 48 35s-5.106 12.257-11.653 12.931c-.2.045-.406.069-.62.069-.12 0-.241-.002-.362-.005-.12.003-.243.005-.365.005-7.18 0-13-5.82-13-13s5.82-13 13-13c.122 0 .244.002.366.005l.057-.001zm4.432 5.625l.079.322c1.04 4.335 1.014 10.17-.08 14.428A8.988 8.988 0 0044 35a8.99 8.99 0 00-3.84-7.375z" fill="#FFF"/><path d="M325 22c7.18 0 13 5.82 13 13s-5.82 13-13 13-13-5.82-13-13 5.82-13 13-13zm0 4a9 9 0 100 18 9 9 0 000-18z" fill="#FFF" fill-rule="nonzero"/><path d="M325 311c7.18 0 13 5.82 13 13s-5.82 13-13 13a12.944 12.944 0 01-8-2.752c3.044-2.38 5-6.086 5-10.248 0-4.162-1.956-7.868-4.999-10.247a12.935 12.935 0 018-2.753z" fill="#FFF"/><path d="M35 335c1.701 0 3.313-.386 4.751-1.076A14.943 14.943 0 0136 324c0-3.805 1.416-7.278 3.75-9.923A10.945 10.945 0 0035 313a10.965 10.965 0 00-7.778 3.222A10.966 10.966 0 0024 324c0 3.038 1.231 5.788 3.222 7.778A10.965 10.965 0 0035 335z" stroke="#FFF" stroke-width="4"/><path stroke="#FFF" stroke-width="4" stroke-linecap="round" d="M63 37h233.817"/><path stroke="#FFF" stroke-width="2" stroke-linecap="round" stroke-dasharray="1,8" d="M66.998 29h226.65"/><path stroke="#FFF" stroke-width="4" stroke-linecap="round" d="M63 324h233.817"/><path stroke="#FFF" stroke-width="2" stroke-linecap="round" stroke-dasharray="1,8" d="M66.998 332h226.65"/><path stroke="#FFF" stroke-width="4" stroke-linecap="round" d="M323 63v234M37 63v234"/><path stroke="#FFF" stroke-width="2" stroke-linecap="round" stroke-dasharray="1,8" d="M331 67v228M29 67v228"/></g></svg>