<svg xmlns="http://www.w3.org/2000/svg" viewBox="0 0 2437 2670"><g stroke="#000" stroke-width="4" fill="none" fill-rule="evenodd" opacity=".05" stroke-linecap="square"><path d="M637.593 2666.427l730.529-1471.412M416.626 2527.229l951.496-1332.214M295.526 2195.355l1072.596-1000.34M142.972 1910.667l1225.15-715.652M3 1622.834l1365.122-427.819M907.315 2667.214l460.807-1472.199M1136.932 2667.214l231.19-1472.199M1350.822 2667.214l17.3-1472.199M1582.012 2667.214l-213.89-1472.199M1811.63 2626.319l-443.508-1431.304M2028.665 2560.259l-660.543-1365.244M2190.655 2299.164l-822.533-1104.149M2288.164 1984.592l-920.042-789.577M2362.082 1706.195l-993.96-511.18M2434.427 1415.216l-1066.305-220.201M2417.127 1146.257l-1049.005 48.758M2258.282 866.287l-890.16 328.728M2311.755 529.695l-943.633 665.32M2236.264 233.997l-868.142 961.018M2080.565 51.545l-712.443 1143.47M1839.939 2.786l-471.817 1192.229M1604.03 2.786l-235.908 1192.229M1391.713 2.786l-23.591 1192.229M1177.823 2.786l190.299 1192.229M957.642 26.379l410.48 1168.636M688.707 2.786l679.415 1192.229M506.271 191.53l861.851 1003.485M416.626 449.479l951.496 745.536M341.135 693.273l1026.987 501.742M218.463 944.93l1149.659 250.085M164.99 1279.95l1203.132-84.935"/></g></svg>