<svg xmlns="http://www.w3.org/2000/svg" viewBox="0 0 294 175"><path d="M21.126 6.878c11.36-3.337 62.57-3.068 103.92-2.93 7.877.027 15.401.052 22.234.052 42.846 0 105.668 1.731 121.022 3.969 7.019 1.022 12.65 3.394 16.479 7.047 3.587 3.424 5.499 7.973 5.499 13.412 0 12.683-.987 80.758-1.984 90.26-.125 1.19-.226 2.412-.328 3.645-.378 4.572-.663 9.35-2.654 12.912-1.194 2.136-3.105 3.72-6.172 4.394-7.15 1.572-14.183 2.36-21.1 2.362-1.542 0-3.09-.04-4.642-.117.704 1.21 1.301 2.564 1.793 4.056 1.883 5.711 1.315 10.704-1.941 14.931-3.027 3.93-8.138 7.171-15.218 9.868.05-7.732-.677-13.857-2.694-18.407-2.381-5.373-6.427-8.832-13.074-10.265-5.577-1.203-45.976-.412-89.057.506-48.053 1.025-99.48 2.177-108.366.48-7.174-1.37-12.262-3.84-15.687-7.266-3.747-3.747-5.421-8.593-5.887-14.043-.716-8.381.127-47.07.65-71.378.204-9.54.361-16.881.361-19.366 0-4.488 1.56-10.496 5.102-15.53 2.678-3.805 6.515-7.056 11.744-8.592z" fill="#FAFBFC" stroke="#7C35AB" stroke-width="6" fill-rule="evenodd"/></svg>