<svg xmlns="http://www.w3.org/2000/svg" viewBox="0 0 294 175"><path d="M272.154 6.878c-11.36-3.337-62.57-3.068-103.92-2.93C160.358 3.975 152.834 4 146 4 103.154 4 40.332 5.731 24.978 7.969 17.96 8.99 12.328 11.363 8.5 15.016 4.912 18.44 3 22.99 3 28.428c0 12.683.987 80.758 1.984 90.26.125 1.19.226 2.412.328 3.645.378 4.572.663 9.35 2.654 12.912 1.194 2.136 3.105 3.72 6.172 4.394 7.15 1.572 14.183 2.36 21.1 2.362 1.542 0 3.09-.04 4.642-.117-.704 1.21-1.301 2.564-1.793 4.056-1.883 5.711-1.315 10.704 1.941 14.931 3.027 3.93 8.138 7.171 15.218 9.868-.05-7.732.677-13.857 2.694-18.407 2.381-5.373 6.427-8.832 13.074-10.265 5.577-1.203 45.976-.412 89.057.506 48.053 1.025 99.48 2.177 108.366.48 7.174-1.37 12.262-3.84 15.687-7.266 3.747-3.747 5.421-8.593 5.887-14.043.716-8.381-.127-47.07-.65-71.378C289.158 40.826 289 33.485 289 31c0-4.488-1.56-10.496-5.102-15.53-2.678-3.805-6.515-7.056-11.744-8.592z" fill="#FAFBFC" stroke="#336CC3" stroke-width="6" fill-rule="evenodd"/></svg>