<svg xmlns="http://www.w3.org/2000/svg" viewBox="0 0 2435 2668"><g stroke="#000" stroke-width="2" fill="none" fill-rule="evenodd" opacity=".1" stroke-linecap="square"><path d="M636.593 2665.427l730.529-1471.412M415.626 2526.229l951.496-1332.214M294.526 2194.355l1072.596-1000.34M141.972 1909.667l1225.15-715.652M2 1621.834l1365.122-427.819M906.315 2666.214l460.807-1472.199M1135.932 2666.214l231.19-1472.199M1349.822 2666.214l17.3-1472.199M1581.012 2666.214l-213.89-1472.199M1810.63 2625.319l-443.508-1431.304M2027.665 2559.259l-660.543-1365.244M2189.655 2298.164l-822.533-1104.149M2287.164 1983.592l-920.042-789.577M2361.082 1705.195l-993.96-511.18M2433.427 1414.216l-1066.305-220.201M2416.127 1145.257l-1049.005 48.758M2257.282 865.287l-890.16 328.728M2310.755 528.695l-943.633 665.32M2235.264 232.997l-868.142 961.018M2079.565 50.545l-712.443 1143.47M1838.939 1.786l-471.817 1192.229M1603.03 1.786l-235.908 1192.229M1390.713 1.786l-23.591 1192.229M1176.823 1.786l190.299 1192.229M956.642 25.379l410.48 1168.636M687.707 1.786l679.415 1192.229M505.271 190.53l861.851 1003.485M415.626 448.479l951.496 745.536M340.135 692.273l1026.987 501.742M217.463 943.93l1149.659 250.085M163.99 1278.95l1203.132-84.935"/></g></svg>