<svg xmlns="http://www.w3.org/2000/svg" viewBox="0 0 1997 2187"><g stroke="#85CCBE" stroke-width="4" fill="none" fill-rule="evenodd" opacity=".6" stroke-linecap="square"><path d="M521.145 2185.855L1120.5 979.5M340.5 2071.5l781-1092M240.5 1799.5l880-820M115.5 1566.5l1005-587M.5 1330.5l1120-351M742.5 2186.5l378-1207M931.145 2185.855l189.71-1206.71M1107.125 2185.855l13.75-1206.71M1296.854 2185.855l-175.708-1206.71M1484.855 2152.855l-363.71-1173.71M1662.855 2098.855l-541.71-1119.71M1795.855 1884.855l-674.71-905.71M1875.855 1626.855l-754.71-647.71M1936.855 1397.856l-815.71-418.712M1995.855 1159.855l-874.71-180.71M1981.855 939.141l-860.71 39.718M1851.854 709.145l-730.708 269.71M1894.855 433.145l-773.71 545.71M1833.854 191.145l-712.708 787.71M1705.855 41.145l-584.71 937.71M1507.855 1.145l-386.71 977.71M1314.854 1.145l-193.708 977.71M1140.844 1.145l-19.688 977.71M965.143 1.145l155.714 977.71M784.145 21.145l336.71 958.71M563.145 1.145l557.709 977.71M414.145 156.145l706.71 822.71M340.145 368.145l780.71 611.71M278.145 568.145l842.71 411.71M178.145 774.144l942.71 204.712M134.145 1048.855l986.71-69.71"/></g></svg>